<svg id="visual" viewBox="0 0 900 600" width="900" height="600" xmlns="http://www.w3.org/2000/svg" xmlns:xlink="http://www.w3.org/1999/xlink" version="1.1"><path d="M0 97L13.7 88C27.3 79 54.7 61 82 57C109.3 53 136.7 63 163.8 65C191 67 218 61 245.2 65C272.3 69 299.7 83 327 80C354.3 77 381.7 57 409 55C436.3 53 463.7 69 491 70C518.3 71 545.7 57 573 54C600.3 51 627.7 59 654.8 60C682 61 709 55 736.2 52C763.3 49 790.7 49 818 55C845.3 61 872.7 73 886.3 79L900 85L900 0L886.3 0C872.7 0 845.3 0 818 0C790.7 0 763.3 0 736.2 0C709 0 682 0 654.8 0C627.7 0 600.3 0 573 0C545.7 0 518.3 0 491 0C463.7 0 436.3 0 409 0C381.7 0 354.3 0 327 0C299.7 0 272.3 0 245.2 0C218 0 191 0 163.8 0C136.7 0 109.3 0 82 0C54.7 0 27.3 0 13.7 0L0 0Z" fill="#f2f2f2"></path><path d="M0 277L13.7 282C27.3 287 54.7 297 82 285C109.3 273 136.7 239 163.8 219C191 199 218 193 245.2 200C272.3 207 299.7 227 327 227C354.3 227 381.7 207 409 199C436.3 191 463.7 195 491 197C518.3 199 545.7 199 573 203C600.3 207 627.7 215 654.8 222C682 229 709 235 736.2 219C763.3 203 790.7 165 818 175C845.3 185 872.7 243 886.3 272L900 301L900 83L886.3 77C872.7 71 845.3 59 818 53C790.7 47 763.3 47 736.2 50C709 53 682 59 654.8 58C627.7 57 600.3 49 573 52C545.7 55 518.3 69 491 68C463.7 67 436.3 51 409 53C381.7 55 354.3 75 327 78C299.7 81 272.3 67 245.2 63C218 59 191 65 163.8 63C136.7 61 109.3 51 82 55C54.7 59 27.3 77 13.7 86L0 95Z" fill="#dceaee"></path><path d="M0 427L13.7 424C27.3 421 54.7 415 82 406C109.3 397 136.7 385 163.8 396C191 407 218 441 245.2 444C272.3 447 299.7 419 327 411C354.3 403 381.7 415 409 422C436.3 429 463.7 431 491 424C518.3 417 545.7 401 573 398C600.3 395 627.7 405 654.8 402C682 399 709 383 736.2 377C763.3 371 790.7 375 818 387C845.3 399 872.7 419 886.3 429L900 439L900 299L886.3 270C872.7 241 845.3 183 818 173C790.7 163 763.3 201 736.2 217C709 233 682 227 654.8 220C627.7 213 600.3 205 573 201C545.7 197 518.3 197 491 195C463.7 193 436.3 189 409 197C381.7 205 354.3 225 327 225C299.7 225 272.3 205 245.2 198C218 191 191 197 163.8 217C136.7 237 109.3 271 82 283C54.7 295 27.3 285 13.7 280L0 275Z" fill="#c5e2ea"></path><path d="M0 493L13.7 497C27.3 501 54.7 509 82 506C109.3 503 136.7 489 163.8 490C191 491 218 507 245.2 501C272.3 495 299.7 467 327 462C354.3 457 381.7 475 409 489C436.3 503 463.7 513 491 514C518.3 515 545.7 507 573 504C600.3 501 627.7 503 654.8 494C682 485 709 465 736.2 461C763.3 457 790.7 469 818 477C845.3 485 872.7 489 886.3 491L900 493L900 437L886.3 427C872.7 417 845.3 397 818 385C790.7 373 763.3 369 736.2 375C709 381 682 397 654.8 400C627.7 403 600.3 393 573 396C545.7 399 518.3 415 491 422C463.7 429 436.3 427 409 420C381.7 413 354.3 401 327 409C299.7 417 272.3 445 245.2 442C218 439 191 405 163.8 394C136.7 383 109.3 395 82 404C54.7 413 27.3 419 13.7 422L0 425Z" fill="#aedae5"></path><path d="M0 601L13.7 601C27.3 601 54.7 601 82 601C109.3 601 136.7 601 163.8 601C191 601 218 601 245.2 601C272.3 601 299.7 601 327 601C354.3 601 381.7 601 409 601C436.3 601 463.7 601 491 601C518.3 601 545.7 601 573 601C600.3 601 627.7 601 654.8 601C682 601 709 601 736.2 601C763.3 601 790.7 601 818 601C845.3 601 872.7 601 886.3 601L900 601L900 491L886.3 489C872.7 487 845.3 483 818 475C790.7 467 763.3 455 736.2 459C709 463 682 483 654.8 492C627.7 501 600.3 499 573 502C545.7 505 518.3 513 491 512C463.7 511 436.3 501 409 487C381.7 473 354.3 455 327 460C299.7 465 272.3 493 245.2 499C218 505 191 489 163.8 488C136.7 487 109.3 501 82 504C54.7 507 27.3 499 13.7 495L0 491Z" fill="#95d1e1"></path></svg>